<mxfile host="65bd71144e">
    <diagram id="2h525QbCs1EEq5ebm2c9" name="Page-1">
        <mxGraphModel dx="623" dy="698" grid="1" gridSize="10" guides="1" tooltips="1" connect="1" arrows="1" fold="1" page="1" pageScale="1" pageWidth="1100" pageHeight="850" math="0" shadow="0">
            <root>
                <mxCell id="0"/>
                <mxCell id="1" parent="0"/>
                <mxCell id="3" value="" style="endArrow=classic;html=1;" parent="1" edge="1">
                    <mxGeometry relative="1" as="geometry">
                        <mxPoint x="310" y="440" as="sourcePoint"/>
                        <mxPoint x="790" y="440" as="targetPoint"/>
                        <Array as="points">
                            <mxPoint x="310" y="390"/>
                            <mxPoint x="790" y="390"/>
                        </Array>
                    </mxGeometry>
                </mxCell>
                <mxCell id="4" value="Ligero" style="edgeLabel;resizable=0;html=1;align=center;verticalAlign=middle;" parent="3" connectable="0" vertex="1">
                    <mxGeometry relative="1" as="geometry">
                        <mxPoint x="-1" y="-30" as="offset"/>
                    </mxGeometry>
                </mxCell>
                <mxCell id="5" value="Inicio" style="edgeLabel;resizable=0;html=1;align=left;verticalAlign=bottom;" parent="3" connectable="0" vertex="1">
                    <mxGeometry x="-1" relative="1" as="geometry">
                        <mxPoint x="-10" y="20" as="offset"/>
                    </mxGeometry>
                </mxCell>
                <mxCell id="6" value="Meta" style="edgeLabel;resizable=0;html=1;align=right;verticalAlign=bottom;" parent="3" connectable="0" vertex="1">
                    <mxGeometry x="1" relative="1" as="geometry">
                        <mxPoint x="10" y="20" as="offset"/>
                    </mxGeometry>
                </mxCell>
                <mxCell id="7" value="" style="shape=link;html=1;" edge="1" parent="1">
                    <mxGeometry width="100" relative="1" as="geometry">
                        <mxPoint x="320" y="470" as="sourcePoint"/>
                        <mxPoint x="790" y="470" as="targetPoint"/>
                    </mxGeometry>
                </mxCell>
                <mxCell id="14" value="" style="endArrow=classic;html=1;" edge="1" parent="1">
                    <mxGeometry relative="1" as="geometry">
                        <mxPoint x="310" y="630" as="sourcePoint"/>
                        <mxPoint x="790" y="630" as="targetPoint"/>
                        <Array as="points">
                            <mxPoint x="310" y="580"/>
                            <mxPoint x="790" y="580"/>
                        </Array>
                    </mxGeometry>
                </mxCell>
                <mxCell id="15" value="ClÃ­nico" style="edgeLabel;resizable=0;html=1;align=center;verticalAlign=middle;" connectable="0" vertex="1" parent="14">
                    <mxGeometry relative="1" as="geometry">
                        <mxPoint x="-1" y="-30" as="offset"/>
                    </mxGeometry>
                </mxCell>
                <mxCell id="16" value="Inicio" style="edgeLabel;resizable=0;html=1;align=left;verticalAlign=bottom;" connectable="0" vertex="1" parent="14">
                    <mxGeometry x="-1" relative="1" as="geometry">
                        <mxPoint x="-10" y="20" as="offset"/>
                    </mxGeometry>
                </mxCell>
                <mxCell id="17" value="Meta" style="edgeLabel;resizable=0;html=1;align=right;verticalAlign=bottom;" connectable="0" vertex="1" parent="14">
                    <mxGeometry x="1" relative="1" as="geometry">
                        <mxPoint x="10" y="20" as="offset"/>
                    </mxGeometry>
                </mxCell>
                <mxCell id="18" value="" style="shape=link;html=1;" edge="1" parent="1">
                    <mxGeometry width="100" relative="1" as="geometry">
                        <mxPoint x="320" y="660" as="sourcePoint"/>
                        <mxPoint x="790" y="660" as="targetPoint"/>
                    </mxGeometry>
                </mxCell>
                <mxCell id="20" value="" style="ellipse;whiteSpace=wrap;html=1;aspect=fixed;fillColor=#a20025;fontColor=#ffffff;strokeColor=#6F0000;" vertex="1" parent="1">
                    <mxGeometry x="420" y="600" width="30" height="30" as="geometry"/>
                </mxCell>
                <mxCell id="21" value="" style="ellipse;whiteSpace=wrap;html=1;aspect=fixed;fillColor=#a20025;fontColor=#ffffff;strokeColor=#6F0000;" vertex="1" parent="1">
                    <mxGeometry x="670" y="600" width="30" height="30" as="geometry"/>
                </mxCell>
                <mxCell id="23" value="" style="ellipse;whiteSpace=wrap;html=1;aspect=fixed;fillColor=#a20025;fontColor=#ffffff;strokeColor=#6F0000;" vertex="1" parent="1">
                    <mxGeometry x="540" y="600" width="30" height="30" as="geometry"/>
                </mxCell>
            </root>
        </mxGraphModel>
    </diagram>
</mxfile>